<svg xmlns="http://www.w3.org/2000/svg" width="33.761" height="37.774" viewBox="0 0 33.761 37.774">
  <g id="file" transform="translate(-27.176 511.659)">
    <path id="Path_91763" data-name="Path 91763" d="M51.876-511.573a8.147,8.147,0,0,0-3.02,1.226l-.413.288-9.665.015-9.658.022-.465.251a2.9,2.9,0,0,0-1.285,1.4l-.17.421-.022,13.726c-.007,9.067.007,13.866.059,14.14a2.645,2.645,0,0,0,1.462,1.942l.487.244,1.491.022,1.484.022.044.908a2.833,2.833,0,0,0,1.137,2.555c.783.554.1.524,11.43.5l10.116-.022.421-.2a2.794,2.794,0,0,0,1.543-2.008c.044-.236.059-2.5.052-5.685l-.022-5.3-.244-.214a.676.676,0,0,0-.952-.037l-.207.177-.037,5.493-.037,5.486-.17.273a1.243,1.243,0,0,1-.487.421c-.31.155-.347.155-10.182.155-10.8,0-10.167.03-10.559-.436-.266-.318-.31-.509-.31-1.336v-.7l8.085-.037,8.085-.037.495-.244a2.656,2.656,0,0,0,1.469-2c.037-.229.066-3.847.066-8.24v-7.827l1.24-.007a7.583,7.583,0,0,0,1.735-.126c.281-.066.517-.125.539-.125s.03.731.03,1.617v1.617l.192.229a.51.51,0,0,0,.487.229c.738,0,.8-.185.8-2.488V-497.1l.583-.391a8.011,8.011,0,0,0,2.7-3.145,7.733,7.733,0,0,0-3.618-10.241,7.174,7.174,0,0,0-3.175-.775A7.634,7.634,0,0,0,51.876-511.573Zm2.924,1.58a6.33,6.33,0,0,1,4.076,3.426,5.463,5.463,0,0,1,.569,2.636,5.56,5.56,0,0,1-.569,2.651,6.284,6.284,0,0,1-8.122,3.131,6.887,6.887,0,0,1-2.828-2.37,6.4,6.4,0,0,1-.222-6.439,6.408,6.408,0,0,1,4.187-3.109A7.164,7.164,0,0,1,54.8-509.993Zm-7.849,1.44a3.063,3.063,0,0,1-.222.369,8.364,8.364,0,0,0-1.233,3.4l-.059.517-6.387.015c-4.659.015-6.431.044-6.549.1-.347.185-.391.45-.391,2.186,0,1.765.052,2.023.443,2.215.229.118,13.608.14,13.9.029.17-.066.207-.037.384.229a8.9,8.9,0,0,0,3.123,2.6l.458.222-.015,8.233-.022,8.24-.177.281a1.255,1.255,0,0,1-.458.421c-.273.148-.48.148-10.219.148s-9.946,0-10.219-.148a1.255,1.255,0,0,1-.458-.421l-.177-.281-.022-13.615c-.007-9.023.007-13.7.059-13.889a1.138,1.138,0,0,1,.605-.76c.222-.111,1.071-.125,8.942-.125C43.038-508.583,46.951-508.568,46.951-508.553ZM45.46-501.96l-.022.8-5.922.022-5.929.015v-1.624h11.9Z" transform="translate(0 0)" fill="#0041a0"/>
    <path id="Path_91764" data-name="Path 91764" d="M370.1-461.824a.711.711,0,0,0,.8,1.159.7.7,0,0,0,.155-1.189A.662.662,0,0,0,370.1-461.824Z" transform="translate(-317.394 -45.954)" fill="#0041a0"/>
    <path id="Path_91765" data-name="Path 91765" d="M370.4-429.868c-.4.155-.4.185-.4,3.2v2.8l.214.214a.721.721,0,0,0,1.226-.406c.022-.125.037-1.4.022-2.835l-.022-2.614-.244-.214A.687.687,0,0,0,370.4-429.868Z" transform="translate(-317.511 -75.687)" fill="#0041a0"/>
    <path id="Path_91766" data-name="Path 91766" d="M94.719-313.815a.672.672,0,0,0-.17.812c.214.5-.118.48,7.332.48,6.232,0,6.719-.007,6.963-.133a.713.713,0,0,0,.17-1.159l-.192-.185H94.911Z" transform="translate(-62.336 -183.064)" fill="#0041a0"/>
    <path id="Path_91767" data-name="Path 91767" d="M95.111-266.85a.794.794,0,0,0-.413.724.593.593,0,0,0,.236.473l.229.207h6.889c7.649,0,7.11.037,7.339-.495a.485.485,0,0,0-.03-.524.914.914,0,0,0-.318-.362c-.14-.074-1.706-.1-6.978-.089C98.323-266.917,95.2-266.887,95.111-266.85Z" transform="translate(-62.536 -226.67)" fill="#0041a0"/>
    <path id="Path_91768" data-name="Path 91768" d="M95.016-219.681a.725.725,0,0,0-.443.9c.17.517-.34.48,7.347.48,6.468,0,6.955-.015,7.1-.133a.77.77,0,0,0-.03-1.174c-.185-.126-.657-.133-6.963-.148C96.921-219.77,95.208-219.747,95.016-219.681Z" transform="translate(-62.389 -270.346)" fill="#0041a0"/>
    <path id="Path_91769" data-name="Path 91769" d="M94.934-171.8a.593.593,0,0,0-.236.473.766.766,0,0,0,.436.724c.3.118,13.682.1,13.911-.022a.913.913,0,0,0,.318-.362.485.485,0,0,0,.03-.524c-.229-.532.31-.495-7.339-.495H95.163Z" transform="translate(-62.536 -314.572)" fill="#0041a0"/>
    <path id="Path_91770" data-name="Path 91770" d="M410.192-229.771a.733.733,0,0,0-.192.473.733.733,0,0,0,.192.473.51.51,0,0,0,.487.229c.391,0,.569-.1.694-.421a.59.59,0,0,0,.03-.509.657.657,0,0,0-.709-.473A.507.507,0,0,0,410.192-229.771Z" transform="translate(-354.558 -260.862)" fill="#0041a0"/>
  </g>
</svg>
